<svg width="32" height="32" viewBox="0 0 32 32" fill="none" xmlns="http://www.w3.org/2000/svg">
<g clip-path="url(#clip0_8_20)">
<path d="M16 27.9755C22.6139 27.9755 27.9755 22.6139 27.9755 16C27.9755 9.38605 22.6139 4.02441 16 4.02441C9.38605 4.02441 4.02441 9.38605 4.02441 16C4.02441 22.6139 9.38605 27.9755 16 27.9755Z" fill="#FC3F1D"/>
<path d="M20.3334 23.5178H17.7046V10.5155H16.5334C14.3868 10.5155 13.2623 11.5889 13.2623 13.1911C13.2623 15.0089 14.0379 15.8511 15.6423 16.9244L16.9646 17.8155L13.1646 23.5155H10.3379L13.7579 18.4266C11.7912 17.0222 10.6846 15.6511 10.6846 13.3378C10.6846 10.4466 12.7001 8.47998 16.5157 8.47998H20.3157V23.5133H20.3334V23.5178Z" fill="white"/>
</g>
<defs>
<clipPath id="clip0_8_20">
<rect width="24" height="24" fill="white" transform="translate(4 4)"/>
</clipPath>
</defs>
</svg>
