<svg width="32" height="32" viewBox="0 0 32 32" fill="none" xmlns="http://www.w3.org/2000/svg">
<path fill-rule="evenodd" clip-rule="evenodd" d="M11.0023 6.51803C12.4816 5.52919 14.2208 5.00094 16.0002 5C17.7803 5.00074 19.5201 5.52921 20.9999 6.5186C22.4797 7.50799 23.6329 8.91389 24.3138 10.5586C24.9947 12.2033 25.1727 14.0129 24.8254 15.7587C24.478 17.5046 23.6208 19.1082 22.3622 20.367C21.9373 20.7919 21.3624 21.2662 20.7407 21.7791C18.9789 23.2324 16.841 24.9961 16.6732 26.827C16.6402 27.197 16.3702 27.5 16.0002 27.5C15.6302 27.5 15.3612 27.197 15.3272 26.827C15.1594 24.9959 13.0193 23.2298 11.2561 21.7748C10.6342 21.2615 10.0592 20.787 9.63419 20.362C8.37704 19.1027 7.52129 17.4991 7.17503 15.7538C6.82876 14.0084 7.00752 12.1996 7.68872 10.5558C8.36991 8.91194 9.523 7.50687 11.0023 6.51803ZM14.8216 16.8446C15.1952 16.9994 15.5956 17.079 15.9999 17.079C16.8165 17.079 17.5997 16.7546 18.1771 16.1772C18.7545 15.5998 19.0789 14.8166 19.0789 14C19.0789 13.1834 18.7545 12.4003 18.1771 11.8228C17.5997 11.2454 16.8165 10.921 15.9999 10.921C15.5956 10.921 15.1952 11.0007 14.8216 11.1554C14.4481 11.3101 14.1086 11.5369 13.8227 11.8228C13.5368 12.1088 13.31 12.4482 13.1553 12.8217C13.0005 13.1953 12.9209 13.5957 12.9209 14C12.9209 14.4044 13.0005 14.8047 13.1553 15.1783C13.31 15.5519 13.5368 15.8913 13.8227 16.1772C14.1086 16.4631 14.4481 16.6899 14.8216 16.8446Z" fill="#FF4433"/>
</svg>
